Patient4_TMGait_0pt5_02_left_02_EMG.mot
version=1
nRows=13
nColumns=33
inDegrees=no
endheader
time	1LAddLong	2LGlutMax	3LGlutMed	4LIliopsoas	5LSemiMemb	6LBicFemLong	7LRecFem	8LVastMed	9LVastLat	10LGasMed	11LTibAnt	12lTibPost	13LPeroneusLong	14LSol	15LExtDigLong	16LFlexDigLong	17RAddLong	18RGlutMax	19RGlutMed	20RIliopsoas	21RSemiMemb	22RBicFemLong	23RRecFem	24RVastMed	25RVastLat	26RGasMed	27RTibAnt	28RTibPost	29RPeroneusLong	30RSol	31RExtDigLong	32RFlexDigLong
2.795	0.014191	0.17914	-0.43121	-0.003967	-0.001068	-0.020142	0.15427	0.009308	-0.09552	-0.017395	0.007477	-0.042114	0.094452	-0.17731	-0.013885	0.016937	-0.023346	0.029144	-0.17242	0.069733	0.27679	0.068817	-0.061951	0.036163	-0.11749	-0.005798	0.012054	-0.002441	-0.014191	-0.014801	-0.00061	-0.022125
2.796	0.005035	0.14832	-0.43579	0.007935	0.011597	-0.06546	0.14069	0.005341	-0.082245	0.039673	0.019379	0.086823	0.077057	-0.32272	-0.008087	0.027161	0.000153	0.044861	-0.27298	0.092316	0.12314	0.045319	-0.19592	-0.00351	0.29831	0.001221	0.016479	-0.005798	-0.017853	0.016785	-0.000153	-0.018463
2.797	0.009766	0.093231	-0.46814	0.013428	0.0177	-0.019379	0.11704	-0.000305	-0.079956	0.17853	0.024719	-0.10483	0.062408	-0.17975	-0.018616	0.005646	0.06485	-0.046234	-0.28809	-0.008698	0.21515	0.099792	-0.26337	-0.087128	0.59067	0	0.033264	-0.007019	-0.040741	0.000305	-0.002289	-0.022736
2.798	0.00351	0.066223	-0.47409	0.018158	-0.00061	-0.02243	0.088348	-0.000153	-0.065155	0.17975	0.016327	0.019836	0.076141	-0.10254	-0.008087	-0.00885	0.078278	-0.10483	-0.060577	0.020142	0.21408	0.14023	-0.32837	-0.16251	0.72571	0.002136	0.051575	-0.003204	-0.080109	-0.017853	-0.000916	-0.024872
2.799	0.006104	0.031738	-0.46936	0.0177	0.002594	-0.000763	0.095215	0.003662	-0.065002	0.21774	0.016327	-0.037079	0.073547	0.051422	-0.011597	-0.034485	0.02533	-0.071106	-0.01297	0.041504	0.1033	0.24979	-0.27206	-0.24979	0.47073	-0.006104	0.035095	-0.005798	-0.072479	-0.030365	-0.000458	-0.023651
2.8	-0.010529	0.043335	-0.46997	0.016174	-0.003967	0.049286	0.071869	-0.002899	-0.080261	0.26199	0.018921	0.049286	0.04715	0.026245	-0.016479	-0.014191	-0.10208	-0.071716	-0.071106	0.028839	-0.1976	0.32013	-0.16571	-0.28	0.11215	-0.002441	0.02243	-0.007172	-0.02533	-0.054626	-0.002899	-0.020905
2.801	-0.008545	0.020905	-0.48645	0.008087	0.001984	0.03479	0.093842	0.000916	-0.069122	0.42755	0.029144	0.049286	0.02121	0.1181	0.002136	-0.019684	-0.15778	-0.091705	-0.19653	-0.04776	-0.20447	0.3122	-0.10956	-0.15518	-0.10147	-0.000763	0.011749	-0.002136	0.013885	-0.041962	-0.003052	-0.013428
2.802	-0.005951	0.041504	-0.47592	0.007782	0.011292	0.021667	0.069885	-0.000763	-0.053864	0.66101	0.021057	0.019073	-0.053253	0.17868	0.003967	-0.019073	-0.13229	-0.021973	-0.23041	-0.042877	0.072632	0.25055	-0.22095	-0.065918	-0.25543	0.001221	-0.030975	-0.006409	0.056458	-0.020752	-0.001526	-0.0177
2.803	-0.001373	0.040894	-0.43778	0.008545	0.010223	0.04364	0.069122	-0.007172	-0.041046	0.67581	0.027161	0.009308	-0.12131	0.013733	0.004578	0.058899	-0.095825	0.02655	-0.18402	-0.029144	0.62225	0.1387	-0.28122	-0.049286	-0.32181	-0.000763	0.043945	-0.005951	0.018158	-0.036926	-0.002441	-0.016174
2.804	0.004425	0.009918	-0.47241	0.009308	-0.003967	0.046539	0.066681	-0.005188	-0.025787	0.1152	0.01236	-0.045624	-0.092316	-0.081024	0.00885	0.1265	-0.092773	0.064087	-0.14679	0.002594	0.54779	0.12634	-0.20889	-0.095215	-0.36438	0.006104	0.04303	-0.007019	0.062408	-0.036316	-0.001678	-0.0177
2.805	0.009613	-0.018768	-0.46631	-0.004425	-0.015106	0.039825	0.055542	-0.003662	-0.032349	-0.01236	0.014191	0.085754	-0.13107	-0.15503	0.001831	-0.63995	-0.070496	0.098419	-0.079193	0.022736	0.39566	0.068207	-0.092163	-0.010529	-0.03479	0.001526	-0.019379	-0.009613	0.027618	-0.001678	-0.002899	-0.011597
2.806	-0.001831	-0.01709	-0.46631	0.001068	-0.041046	0.024567	0.052338	-0.001984	-0.040741	0.12573	0.032349	0.19394	-0.089111	-0.20737	-0.00885	0.1442	-0.058899	0.001526	0.10559	-0.03952	0.26032	0.10559	-0.21454	0.26154	0.95673	-0.003052	-0.019531	-0.006866	-0.018768	0.004883	-0.004883	-0.02655
2.807	-0.000458	-0.030823	-0.45914	0.011749	-0.028381	-0.013428	0.10117	-0.003357	-0.0383	0.25574	0.024109	-0.31708	0.050201	-0.18188	0.003967	-0.010681	-0.019073	-0.085449	-0.028687	-0.029449	0.2095	0.1178	-0.26016	0.336	1.7154	-0.001678	0.019684	-0.003357	-0.036163	-0.011292	-0.000916	-0.018463
